# xmcd CD database file
#
# Track frame offsets:
#	182
#	35142
#	58042
#	93152
#	107715
#	135685
#	160375
#
# Disc length: 2488 seconds
#
# Revision: 0
# Processed by: cddbd v1.4PL0 Copyright (c) Steve Scherf et al.
# Submitted via: CDex 1.50beta10
#
DISCID=5c09b607
DTITLE=Bertrand Renaudin - Spring of Peace
DYEAR=1989
DGENRE=Jazz
TTITLE0=3/4 c'est pour rire
TTITLE1=Amitiés et encore
TTITLE2=Souhait
TTITLE3=Impro XCBR
TTITLE4=Dormir et sourire
TTITLE5=Hackensack
TTITLE6=Peace
EXTD=YEAR: 1989
EXTT0=
EXTT1=
EXTT2=
EXTT3=
EXTT4=
EXTT5=
EXTT6=
PLAYORDER=
